<?xml version="1.0" standalone="no"?>
<!DOCTYPE svg PUBLIC "-//W3C//DTD SVG 20010904//EN"
 "http://www.w3.org/TR/2001/REC-SVG-20010904/DTD/svg10.dtd">
<svg version="1.0" xmlns="http://www.w3.org/2000/svg"
 viewBox="0 0 170.000000 170.000000"
 preserveAspectRatio="xMidYMid meet">
<metadata>
Created by potrace 1.13, written by Peter Selinger 2001-2015
</metadata>
<g transform="translate(0.000000,170.000000) scale(0.100000,-0.100000)"
fill="#000000" stroke="none">
<path d="M637 1062 l-207 -207 208 -208 207 -207 208 208 207 207 -208 208
-207 207 -208 -208z"/>
<path d="M190 615 l-185 -185 370 0 370 0 -185 185 c-102 102 -185 185 -185
185 0 0 -83 -83 -185 -185z"/>
<path d="M1130 615 l-185 -185 370 0 370 0 -185 185 c-102 102 -185 185 -185
185 0 0 -83 -83 -185 -185z"/>
</g>
</svg>
